<?xml version="1.0" standalone="no"?>
<!DOCTYPE svg PUBLIC "-//W3C//DTD SVG 20010904//EN"
 "http://www.w3.org/TR/2001/REC-SVG-20010904/DTD/svg10.dtd">
<svg version="1.0" xmlns="http://www.w3.org/2000/svg"
 width="573.000000pt" height="436.000000pt" viewBox="0 0 573.000000 436.000000"
 preserveAspectRatio="xMidYMid meet">

<g transform="translate(0.000000,436.000000) scale(0.100000,-0.100000)"
fill="#000000" stroke="none">
<path d="M3578 3872 c-25 -26 -195 -216 -378 -422 -183 -206 -338 -376 -344
-377 -6 -1 -62 57 -125 128 l-113 130 -32 -24 c-17 -14 -31 -29 -31 -35 0 -6
67 -87 150 -181 l150 -171 26 27 c49 52 723 814 736 832 12 18 21 126 11 136
-2 2 -25 -17 -50 -43z"/>
</g>
</svg>
